<svg xmlns="http://www.w3.org/2000/svg" viewBox="0 0 512 512">
  <defs>
    <linearGradient id="bg" x1="0" y1="0" x2="0" y2="1">
      <stop offset="0%" stop-color="#2d1b69"/>
      <stop offset="100%" stop-color="#1a1a2e"/>
    </linearGradient>
  </defs>
  <rect width="512" height="512" rx="96" fill="url(#bg)"/>
  <!-- Castle tower left -->
  <rect x="130" y="160" width="60" height="200" fill="#c9a84c" rx="4"/>
  <rect x="120" y="140" width="80" height="30" fill="#c9a84c" rx="2"/>
  <rect x="120" y="120" width="16" height="30" fill="#c9a84c"/>
  <rect x="152" y="120" width="16" height="30" fill="#c9a84c"/>
  <rect x="184" y="120" width="16" height="30" fill="#c9a84c"/>
  <!-- Castle tower right -->
  <rect x="322" y="160" width="60" height="200" fill="#c9a84c" rx="4"/>
  <rect x="312" y="140" width="80" height="30" fill="#c9a84c" rx="2"/>
  <rect x="312" y="120" width="16" height="30" fill="#c9a84c"/>
  <rect x="344" y="120" width="16" height="30" fill="#c9a84c"/>
  <rect x="376" y="120" width="16" height="30" fill="#c9a84c"/>
  <!-- Castle center -->
  <rect x="180" y="200" width="152" height="160" fill="#e0c068" rx="4"/>
  <rect x="170" y="180" width="172" height="30" fill="#c9a84c" rx="2"/>
  <!-- Gate arch -->
  <path d="M230 360 L230 290 Q256 260 282 290 L282 360 Z" fill="#3a2510"/>
  <!-- Windows -->
  <rect x="200" y="220" width="20" height="25" rx="10" fill="#3a2510"/>
  <rect x="292" y="220" width="20" height="25" rx="10" fill="#3a2510"/>
  <!-- Banner -->
  <rect x="240" y="200" width="32" height="50" fill="#8b2252" rx="2"/>
  <text x="256" y="238" text-anchor="middle" font-size="24" fill="#c9a84c" font-family="serif" font-weight="bold">G</text>
  <!-- Ground -->
  <rect x="80" y="360" width="352" height="40" fill="#2a5a2a" rx="6"/>
</svg>
