<svg xmlns="http://www.w3.org/2000/svg" viewBox="0 0 1170 2532">
  <defs>
    <linearGradient id="bg" x1="0" y1="0" x2="0" y2="1">
      <stop offset="0%" stop-color="#2d1b69"/>
      <stop offset="100%" stop-color="#1a1a2e"/>
    </linearGradient>
  </defs>
  <rect width="1170" height="2532" fill="url(#bg)"/>
  <!-- Castle icon centered -->
  <g transform="translate(425, 950)">
    <rect x="50" y="40" width="60" height="200" fill="#c9a84c" rx="4"/>
    <rect x="40" y="20" width="80" height="30" fill="#c9a84c" rx="2"/>
    <rect x="40" y="0" width="16" height="30" fill="#c9a84c"/>
    <rect x="72" y="0" width="16" height="30" fill="#c9a84c"/>
    <rect x="104" y="0" width="16" height="30" fill="#c9a84c"/>
    <rect x="210" y="40" width="60" height="200" fill="#c9a84c" rx="4"/>
    <rect x="200" y="20" width="80" height="30" fill="#c9a84c" rx="2"/>
    <rect x="200" y="0" width="16" height="30" fill="#c9a84c"/>
    <rect x="232" y="0" width="16" height="30" fill="#c9a84c"/>
    <rect x="264" y="0" width="16" height="30" fill="#c9a84c"/>
    <rect x="100" y="80" width="120" height="160" fill="#e0c068" rx="4"/>
    <rect x="90" y="60" width="140" height="30" fill="#c9a84c" rx="2"/>
    <path d="M140 240 L140 180 Q160 155 180 180 L180 240 Z" fill="#3a2510"/>
  </g>
  <!-- Title text -->
  <text x="585" y="1280" text-anchor="middle" font-size="64" fill="#c9a84c" font-family="serif" font-weight="bold" letter-spacing="8">GEORGE TOWN</text>
</svg>
